<svg id="visual" viewBox="0 0 900 100" width="900" height="100" xmlns="http://www.w3.org/2000/svg" xmlns:xlink="http://www.w3.org/1999/xlink" version="1.1"><rect x="0" y="0" width="900" height="100" fill="transparent"></rect><path d="M0 38L21.5 37.3C43 36.7 86 35.3 128.8 36.8C171.7 38.3 214.3 42.7 257.2 43.2C300 43.7 343 40.3 385.8 37.8C428.7 35.3 471.3 33.7 514.2 35.3C557 37 600 42 642.8 44.3C685.7 46.7 728.3 46.3 771.2 44.7C814 43 857 40 878.5 38.5L900 37L900 101L878.5 101C857 101 814 101 771.2 101C728.3 101 685.7 101 642.8 101C600 101 557 101 514.2 101C471.3 101 428.7 101 385.8 101C343 101 300 101 257.2 101C214.3 101 171.7 101 128.8 101C86 101 43 101 21.5 101L0 101Z" fill="#009859"></path><path d="M0 51L21.5 48C43 45 86 39 128.8 38.8C171.7 38.7 214.3 44.3 257.2 44.3C300 44.3 343 38.7 385.8 36.2C428.7 33.7 471.3 34.3 514.2 34.2C557 34 600 33 642.8 36.2C685.7 39.3 728.3 46.7 771.2 46.5C814 46.3 857 38.7 878.5 34.8L900 31L900 101L878.5 101C857 101 814 101 771.2 101C728.3 101 685.7 101 642.8 101C600 101 557 101 514.2 101C471.3 101 428.7 101 385.8 101C343 101 300 101 257.2 101C214.3 101 171.7 101 128.8 101C86 101 43 101 21.5 101L0 101Z" fill="#00a863"></path><path d="M0 65L21.5 63.5C43 62 86 59 128.8 59C171.7 59 214.3 62 257.2 63.8C300 65.7 343 66.3 385.8 65.5C428.7 64.7 471.3 62.3 514.2 60C557 57.7 600 55.3 642.8 53C685.7 50.7 728.3 48.3 771.2 47C814 45.7 857 45.3 878.5 45.2L900 45L900 101L878.5 101C857 101 814 101 771.2 101C728.3 101 685.7 101 642.8 101C600 101 557 101 514.2 101C471.3 101 428.7 101 385.8 101C343 101 300 101 257.2 101C214.3 101 171.7 101 128.8 101C86 101 43 101 21.5 101L0 101Z" fill="#00b96d"></path><path d="M0 68L21.5 69.8C43 71.7 86 75.3 128.8 75.2C171.7 75 214.3 71 257.2 67.8C300 64.7 343 62.3 385.8 64.3C428.7 66.3 471.3 72.7 514.2 75.7C557 78.7 600 78.3 642.8 75.3C685.7 72.3 728.3 66.7 771.2 64C814 61.3 857 61.7 878.5 61.8L900 62L900 101L878.5 101C857 101 814 101 771.2 101C728.3 101 685.7 101 642.8 101C600 101 557 101 514.2 101C471.3 101 428.7 101 385.8 101C343 101 300 101 257.2 101C214.3 101 171.7 101 128.8 101C86 101 43 101 21.5 101L0 101Z" fill="#00ca77"></path><path d="M0 83L21.5 82.5C43 82 86 81 128.8 82C171.7 83 214.3 86 257.2 86.8C300 87.7 343 86.3 385.8 84.2C428.7 82 471.3 79 514.2 79C557 79 600 82 642.8 82.7C685.7 83.3 728.3 81.7 771.2 80.5C814 79.3 857 78.7 878.5 78.3L900 78L900 101L878.5 101C857 101 814 101 771.2 101C728.3 101 685.7 101 642.8 101C600 101 557 101 514.2 101C471.3 101 428.7 101 385.8 101C343 101 300 101 257.2 101C214.3 101 171.7 101 128.8 101C86 101 43 101 21.5 101L0 101Z" fill="#00dc82"></path></svg>